<svg xmlns="http://www.w3.org/2000/svg" fill="none" viewBox="0 0 100 100"><g clip-path="url(#clip0)"><path fill="#C98" d="M0 0h100v100H0z"/><path fill="#FFF2DB" d="M34.544 81.576c-6.384 0-11.496-1.2-15.336-3.6-3.84-2.448-5.76-6.168-5.76-11.16 0-2.64.456-4.656 1.368-6.048.912-1.392 2.256-2.088 4.032-2.088 1.296 0 2.352.336 3.168 1.008.816.672 1.224 1.536 1.224 2.592 0 .96-.072 1.8-.216 2.52 0 .192-.048.528-.144 1.008-.048.48-.072.984-.072 1.512 0 2.16 1.08 3.768 3.24 4.824 2.208 1.056 5.28 1.584 9.216 1.584 4.08 0 7.272-.72 9.576-2.16 2.304-1.488 3.456-3.552 3.456-6.192 0-1.632-.528-3.024-1.584-4.176-1.056-1.2-2.376-2.184-3.96-2.952-1.584-.816-3.816-1.8-6.696-2.952-3.696-1.44-6.72-2.808-9.072-4.104-2.304-1.296-4.296-3.048-5.976-5.256-1.632-2.256-2.448-5.04-2.448-8.352 0-3.456.912-6.528 2.736-9.216 1.872-2.688 4.536-4.776 7.992-6.264 3.504-1.488 7.608-2.232 12.312-2.232 3.504 0 6.72.528 9.648 1.584 2.928 1.008 5.256 2.568 6.984 4.68 1.776 2.112 2.664 4.704 2.664 7.776 0 3.024-.456 5.304-1.368 6.84-.912 1.536-2.256 2.304-4.032 2.304-1.248 0-2.304-.384-3.168-1.152-.816-.768-1.224-1.68-1.224-2.736 0-.912.072-1.752.216-2.52.144-1.44.216-2.352.216-2.736 0-2.016-.984-3.552-2.952-4.608-1.968-1.056-4.416-1.584-7.344-1.584-4.128 0-7.296.768-9.504 2.304-2.16 1.488-3.24 3.6-3.24 6.336 0 1.824.552 3.384 1.656 4.68 1.152 1.296 2.568 2.376 4.248 3.24 1.68.864 4.032 1.896 7.056 3.096 3.648 1.488 6.576 2.832 8.784 4.032 2.208 1.2 4.08 2.832 5.616 4.896 1.584 2.064 2.376 4.608 2.376 7.632 0 5.664-2.16 10.032-6.48 13.104-4.272 3.024-10.008 4.536-17.208 4.536zm44.522-10.728c.528-.48 1.056-.72 1.584-.72.576 0 1.032.336 1.368 1.008.384.624.576 1.392.576 2.304 0 2.016-.72 3.624-2.16 4.824-2.496 2.064-5.328 3.096-8.496 3.096-4.56 0-7.896-1.896-10.008-5.688-2.112-3.84-3.168-8.832-3.168-14.976 0-5.856.744-12.528 2.232-20.016 1.536-7.488 3.768-13.92 6.696-19.296 2.976-5.376 6.504-8.064 10.584-8.064 2.304 0 4.104 1.08 5.4 3.24 1.344 2.112 2.016 5.16 2.016 9.144 0 5.712-1.584 12.336-4.752 19.872-3.12 7.536-7.392 14.976-12.816 22.32.336 1.968.936 3.384 1.8 4.248.864.864 2.04 1.296 3.528 1.296.816 0 1.728-.24 2.736-.72a11.428 11.428 0 0 0 2.88-1.872zm-2.376-50.4c-1.104 0-2.352 1.992-3.744 5.976-1.392 3.984-2.616 8.928-3.672 14.832s-1.632 11.568-1.728 16.992c3.408-5.616 6.12-11.232 8.136-16.848 2.016-5.664 3.024-10.824 3.024-15.48 0-3.648-.672-5.472-2.016-5.472z"/></g><defs><clipPath id="clip0"><path fill="#fff" d="M0 0h100v100H0z"/></clipPath></defs></svg>